<?xml version="1.0" encoding="utf-8"?>
<!-- Generator: Adobe Illustrator 17.0.0, SVG Export Plug-In . SVG Version: 6.00 Build 0)  -->
<!DOCTYPE svg PUBLIC "-//W3C//DTD SVG 1.1//EN" "http://www.w3.org/Graphics/SVG/1.1/DTD/svg11.dtd">
<svg version="1.1" id="Layer_1" xmlns="http://www.w3.org/2000/svg" xmlns:xlink="http://www.w3.org/1999/xlink" x="0px" y="0px"
	 width="195.31px" height="74.32px" viewBox="0 0 195.31 74.32" enable-background="new 0 0 195.31 74.32" xml:space="preserve">
<g>
	<g>
		<g>
			<path fill="#E93C24" d="M37.724,25.475c-1.107,0-2.09,0.355-2.947,1.066s-1.513,1.934-1.964,3.668
				c-0.452,1.734-0.678,4.273-0.678,7.617c0,4.359,0.518,7.371,1.555,9.035s2.381,2.496,4.035,2.496c1.59,0,2.853-0.789,3.789-2.367
				c1.138-1.906,1.707-5.094,1.707-9.562c0-4.531-0.511-7.656-1.532-9.375C40.667,26.334,39.346,25.475,37.724,25.475z"/>
			<path fill="#E93C24" d="M0-0.002v74.324h74.324V-0.002H0z M15.708,54.584H9.192V26.272H2.09l3.797-6.164h9.82L15.708,54.584
				L15.708,54.584z M48.271,48.045c-1.008,2.547-2.363,4.418-4.066,5.613s-3.852,1.793-6.445,1.793s-4.773-0.602-6.539-1.805
				s-3.148-3.031-4.148-5.484s-1.5-5.945-1.5-10.477c0-6.328,0.977-10.914,2.93-13.757c2.172-3.125,5.195-4.688,9.07-4.688
				c2.516,0,4.684,0.617,6.504,1.852s3.227,3.121,4.219,5.66s1.488,6.074,1.488,10.605C49.783,41.935,49.279,45.498,48.271,48.045z
				 M68.159,54.584h-6.516V26.272h-7.102l3.797-6.164h9.82L68.159,54.584L68.159,54.584z"/>
		</g>
	</g>
	<g enable-background="new    ">
		<path fill="#E93C24" d="M84.029,20.107h6.563v28.219h9.563v6.258H84.029V20.107z"/>
		<path fill="#E93C24" d="M129.99,43.685h-20.555c0.297,1.813,1.09,3.254,2.379,4.324s2.934,1.605,4.934,1.605
			c2.391,0,4.445-0.836,6.164-2.508l5.391,2.531c-1.344,1.906-2.953,3.316-4.828,4.23s-4.102,1.371-6.68,1.371
			c-4,0-7.258-1.262-9.773-3.785s-3.773-5.684-3.773-9.48c0-3.891,1.254-7.121,3.762-9.691s5.652-3.855,9.434-3.855
			c4.016,0,7.281,1.285,9.797,3.855s3.773,5.965,3.773,10.184L129.99,43.685z M123.592,38.646c-0.423-1.422-1.256-2.578-2.501-3.469
			c-1.244-0.891-2.688-1.336-4.331-1.336c-1.784,0-3.35,0.5-4.695,1.5c-0.846,0.625-1.628,1.727-2.348,3.305H123.592z"/>
		<path fill="#E93C24" d="M153.99,29.084h6.398v25.5h-6.398v-2.695c-1.249,1.188-2.501,2.043-3.758,2.566
			c-1.256,0.523-2.618,0.785-4.085,0.785c-3.293,0-6.142-1.277-8.545-3.832s-3.604-5.73-3.604-9.527c0-3.938,1.162-7.164,3.488-9.68
			c2.325-2.516,5.149-3.773,8.475-3.773c1.529,0,2.965,0.289,4.307,0.867s2.583,1.445,3.723,2.602V29.084z M147.263,34.334
			c-1.978,0-3.62,0.699-4.929,2.098c-1.308,1.398-1.962,3.191-1.962,5.379c0,2.203,0.665,4.016,1.997,5.438
			c1.331,1.422,2.97,2.133,4.917,2.133c2.009,0,3.675-0.699,4.999-2.098c1.323-1.398,1.985-3.23,1.985-5.496
			c0-2.219-0.662-4.016-1.985-5.391C150.962,35.021,149.288,34.334,147.263,34.334z"/>
		<path fill="#E93C24" d="M185.677,19.24h6.398v35.344h-6.398v-2.695c-1.249,1.188-2.501,2.043-3.758,2.566
			c-1.256,0.523-2.617,0.785-4.085,0.785c-3.293,0-6.142-1.277-8.545-3.832s-3.604-5.73-3.604-9.527c0-3.938,1.162-7.164,3.488-9.68
			c2.325-2.516,5.149-3.773,8.475-3.773c1.529,0,2.965,0.289,4.307,0.867s2.583,1.445,3.723,2.602V19.24z M178.951,34.334
			c-1.978,0-3.62,0.699-4.929,2.098c-1.308,1.398-1.962,3.191-1.962,5.379c0,2.203,0.665,4.016,1.997,5.438
			c1.331,1.422,2.97,2.133,4.917,2.133c2.009,0,3.676-0.699,4.999-2.098s1.985-3.23,1.985-5.496c0-2.219-0.662-4.016-1.985-5.391
			S180.975,34.334,178.951,34.334z"/>
	</g>
</g>
</svg>
