<?xml version="1.0" encoding="utf-8"?>
<!-- Generator: Adobe Illustrator 17.0.0, SVG Export Plug-In . SVG Version: 6.00 Build 0)  -->
<!DOCTYPE svg PUBLIC "-//W3C//DTD SVG 1.1//EN" "http://www.w3.org/Graphics/SVG/1.1/DTD/svg11.dtd">
<svg version="1.1" id="Layer_1" xmlns="http://www.w3.org/2000/svg" xmlns:xlink="http://www.w3.org/1999/xlink" x="0px" y="0px"
	 width="122.167px" height="49.986px" viewBox="113.225 102.852 122.167 49.986"
	 enable-background="new 113.225 102.852 122.167 49.986" xml:space="preserve">
<g display="none">
	<rect x="53.742" y="112.838" display="inline" fill="#1F72B9" width="74.324" height="74.324"/>
	<g display="inline">
		<path fill="#FFFFFF" d="M59.905,133.245h9.545v33.51h-6.332v-27.518h-6.903L59.905,133.245z"/>
		<path fill="#FFFFFF" d="M91.317,132.402c2.446,0,4.553,0.6,6.321,1.799c1.769,1.2,3.135,3.033,4.1,5.502s1.447,5.904,1.447,10.308
			c0,4.449-0.49,7.912-1.469,10.387c-0.98,2.475-2.297,4.295-3.953,5.456s-3.744,1.742-6.264,1.742
			c-2.521,0-4.639-0.584-6.355-1.755c-1.716-1.169-3.061-2.947-4.032-5.33c-0.972-2.384-1.458-5.779-1.458-10.183
			c0-6.151,0.949-10.608,2.848-13.373C84.612,133.922,87.551,132.402,91.317,132.402z M91.465,138.462
			c-1.076,0-2.031,0.345-2.865,1.036c-0.833,0.691-1.47,1.88-1.909,3.565c-0.439,1.685-0.66,4.154-0.66,7.404
			c0,4.237,0.504,7.164,1.512,8.781s2.314,2.426,3.922,2.426c1.546,0,2.773-0.767,3.682-2.3c1.107-1.852,1.659-4.95,1.659-9.294
			c0-4.404-0.496-7.441-1.489-9.112C94.325,139.297,93.042,138.462,91.465,138.462z"/>
		<path fill="#FFFFFF" d="M112.161,133.245h9.545v33.51h-6.332v-27.518h-6.903L112.161,133.245z"/>
	</g>
	<g display="inline">
		<path fill="#1F72B9" d="M137.701,132.786h6.594v28.351h9.608v6.287h-16.201L137.701,132.786L137.701,132.786z"/>
		<path fill="#1F72B9" d="M183.879,156.474h-20.652c0.299,1.822,1.095,3.27,2.391,4.345c1.294,1.076,2.947,1.612,4.957,1.612
			c2.402,0,4.467-0.839,6.192-2.52l5.416,2.543c-1.35,1.916-2.968,3.332-4.85,4.251c-1.883,0.919-4.121,1.378-6.712,1.378
			c-4.019,0-7.292-1.267-9.82-3.803c-2.528-2.535-3.791-5.71-3.791-9.524c0-3.909,1.259-7.155,3.779-9.737s5.68-3.874,9.478-3.874
			c4.035,0,7.316,1.291,9.842,3.874c2.528,2.582,3.791,5.993,3.791,10.231L183.879,156.474z M177.45,151.411
			c-0.425-1.429-1.262-2.59-2.512-3.485s-2.701-1.342-4.352-1.342c-1.793,0-3.366,0.503-4.717,1.507
			c-0.849,0.628-1.635,1.734-2.359,3.321h13.94L177.45,151.411L177.45,151.411z"/>
		<path fill="#1F72B9" d="M207.992,141.804h6.429v25.62h-6.429v-2.709c-1.254,1.194-2.514,2.052-3.775,2.579
			c-1.262,0.526-2.63,0.789-4.104,0.789c-3.308,0-6.17-1.283-8.585-3.85c-2.415-2.566-3.621-5.758-3.621-9.572
			c0-3.957,1.168-7.198,3.505-9.726c2.336-2.528,5.175-3.791,8.514-3.791c1.536,0,2.979,0.291,4.328,0.871s2.595,1.453,3.739,2.614
			v-2.827h-0.001L207.992,141.804L207.992,141.804z M201.234,147.079c-1.986,0-3.639,0.703-4.952,2.108s-1.972,3.206-1.972,5.405
			c0,2.213,0.668,4.035,2.006,5.464s2.985,2.143,4.941,2.143c2.018,0,3.693-0.703,5.023-2.108s1.994-3.246,1.994-5.521
			c0-2.229-0.665-4.035-1.994-5.416C204.949,147.771,203.268,147.079,201.234,147.079z"/>
		<path fill="#1F72B9" d="M239.829,131.915h6.429v35.51h-6.429v-2.709c-1.254,1.194-2.514,2.052-3.775,2.579
			c-1.262,0.526-2.63,0.789-4.104,0.789c-3.308,0-6.17-1.283-8.585-3.85c-2.415-2.566-3.621-5.758-3.621-9.572
			c0-3.957,1.168-7.198,3.505-9.726c2.336-2.528,5.175-3.791,8.514-3.791c1.536,0,2.979,0.291,4.328,0.871s2.595,1.453,3.739,2.614
			v-12.717h-0.001V131.915z M233.07,147.079c-1.986,0-3.639,0.703-4.952,2.108s-1.972,3.206-1.972,5.405
			c0,2.213,0.668,4.035,2.006,5.464s2.985,2.143,4.941,2.143c2.018,0,3.693-0.703,5.023-2.108s1.994-3.246,1.994-5.521
			c0-2.229-0.665-4.035-1.994-5.416C236.786,147.771,235.105,147.079,233.07,147.079z"/>
	</g>
</g>
<g>
	<circle fill="#3D68B1" cx="138.218" cy="127.845" r="24.993"/>
	<g>
		<path fill="#FFFFFF" d="M117.59,116.779h6.262v21.984h-4.155v-18.054h-4.529L117.59,116.779z"/>
		<path fill="#FFFFFF" d="M138.201,116.225c1.605,0,2.985,0.394,4.148,1.18c1.161,0.787,2.057,1.991,2.691,3.609
			c0.632,1.618,0.949,3.874,0.949,6.763c0,2.919-0.321,5.191-0.965,6.816c-0.642,1.625-1.507,2.817-2.593,3.579
			c-1.086,0.762-2.456,1.143-4.11,1.143c-1.655,0-3.044-0.384-4.17-1.151c-1.126-0.767-2.008-1.933-2.646-3.498
			c-0.637-1.565-0.956-3.791-0.956-6.681c0-4.035,0.622-6.961,1.868-8.773C133.801,117.221,135.729,116.225,138.201,116.225z
			 M138.297,120.201c-0.706,0-1.332,0.226-1.879,0.68c-0.547,0.454-0.965,1.233-1.252,2.339c-0.289,1.106-0.432,2.726-0.432,4.857
			c0,2.781,0.33,4.7,0.992,5.762c0.661,1.061,1.518,1.591,2.573,1.591c1.015,0,1.82-0.504,2.417-1.51
			c0.726-1.216,1.088-3.248,1.088-6.098c0-2.889-0.325-4.882-0.977-5.978C140.174,120.749,139.332,120.201,138.297,120.201z"/>
		<path fill="#FFFFFF" d="M151.876,116.779h6.262v21.984h-4.155v-18.054h-4.529L151.876,116.779z"/>
		<path fill="#3D68B1" d="M166.492,116.779h4.185v17.994h6.098v3.991h-10.283V116.779L166.492,116.779z"/>
		<path fill="#3D68B1" d="M195.801,131.812h-13.108c0.189,1.156,0.695,2.076,1.517,2.758c0.822,0.682,1.871,1.023,3.147,1.023
			c1.526,0,2.834-0.534,3.931-1.6l3.438,1.613c-0.857,1.217-1.883,2.116-3.079,2.698c-1.195,0.582-2.616,0.875-4.259,0.875
			c-2.551,0-4.629-0.805-6.232-2.414c-1.605-1.61-2.407-3.624-2.407-6.046c0-2.481,0.799-4.541,2.398-6.18
			c1.6-1.64,3.604-2.458,6.016-2.458c2.561,0,4.642,0.82,6.247,2.458c1.605,1.64,2.406,3.804,2.406,6.494L195.801,131.812z
			 M191.721,128.601c-0.269-0.907-0.8-1.643-1.595-2.212c-0.794-0.569-1.713-0.852-2.762-0.852c-1.138,0-2.136,0.319-2.994,0.956
			c-0.54,0.399-1.037,1.102-1.497,2.108L191.721,128.601L191.721,128.601z"/>
		<path fill="#3D68B1" d="M211.106,122.502h4.08v16.262h-4.08v-1.72c-0.797,0.757-1.596,1.303-2.397,1.637
			c-0.801,0.334-1.67,0.5-2.606,0.5c-2.099,0-3.916-0.815-5.449-2.443c-1.533-1.63-2.298-3.654-2.298-6.076
			c0-2.511,0.741-4.568,2.224-6.172s3.284-2.407,5.404-2.407c0.975,0,1.891,0.184,2.747,0.552c0.856,0.369,1.647,0.921,2.374,1.66
			L211.106,122.502L211.106,122.502z M206.817,125.85c-1.261,0-2.309,0.446-3.143,1.337c-0.834,0.892-1.251,2.036-1.251,3.43
			c0,1.405,0.425,2.561,1.273,3.467c0.85,0.907,1.893,1.36,3.135,1.36c1.281,0,2.344-0.446,3.188-1.337
			c0.844-0.891,1.266-2.059,1.266-3.504c0-1.415-0.422-2.561-1.266-3.438C209.175,126.289,208.108,125.85,206.817,125.85z"/>
		<path fill="#3D68B1" d="M231.312,116.225h4.08v22.538h-4.08v-1.718c-0.797,0.757-1.596,1.303-2.397,1.637
			c-0.801,0.334-1.67,0.5-2.606,0.5c-2.099,0-3.916-0.815-5.449-2.443c-1.533-1.63-2.298-3.654-2.298-6.076
			c0-2.511,0.741-4.568,2.224-6.172c1.483-1.605,3.284-2.407,5.404-2.407c0.975,0,1.891,0.184,2.747,0.552
			c0.856,0.369,1.647,0.921,2.374,1.66L231.312,116.225L231.312,116.225z M227.023,125.85c-1.261,0-2.309,0.446-3.143,1.337
			c-0.834,0.892-1.251,2.036-1.251,3.43c0,1.405,0.425,2.561,1.273,3.467c0.85,0.907,1.894,1.36,3.135,1.36
			c1.281,0,2.344-0.446,3.188-1.337c0.844-0.891,1.266-2.059,1.266-3.504c0-1.415-0.422-2.561-1.266-3.438
			C229.381,126.289,228.314,125.85,227.023,125.85z"/>
	</g>
</g>
</svg>
